# Created By Carrara 1.0

mtllib bullet.Mtl

# Number of vertices: 60
v	-5 1.69702458 0.00000021
v	-3.10741066 1.27547681 -1.27723610
v	-5 1.19997751 -1.19997727
v	-5 1.69702458 0.00000021
v	-3.10741066 1.80452549 0.00000013
v	0.29319918 1.14826476 -1.15389478
v	0.29319918 1.62622368 -0.00000001
v	-3.10741090 -0.00175940 -1.80628454
v	-5 0.00000000 -1.69702422
v	0.29319906 -0.00563010 -1.63185370
v	3.54672908 0.76980763 -0.77930861
v	3.54672908 1.09260785 -0.00000015
v	3.54672908 -0.00950081 -1.10210871
v	4.99807882 0.06145308 -0.07271350
v	4.99807882 0.13416636 -0.00000021
v	4.99807882 -0.01126020 -0.14542678
v	-3.10741066 -1.27899563 -1.27723610
v	-5 -1.19997739 -1.19997727
v	-3.10741090 -0.00175940 -1.80628454
v	0.29319918 -1.15952491 -1.15389478
v	0.29319906 -0.00563010 -1.63185370
v	-3.10741066 -1.80804431 0.00000013
v	-5 -1.69702446 0.00000021
v	0.29319918 -1.63748371 -0.00000001
v	3.54672908 -0.78880924 -0.77930861
v	3.54672908 -0.00950081 -1.10210871
v	3.54672908 -1.11160922 -0.00000015
v	4.99807882 -0.08397348 -0.07271350
v	4.99807882 -0.15668675 -0.00000021
v	-3.10741066 -1.27899563 1.27723634
v	-5 -1.19997739 1.19997775
v	0.29319918 -1.15952491 1.15389478
v	-3.10741043 -0.00175940 1.80628490
v	-5 0.00000000 1.69702470
v	0.29319930 -0.00563010 1.63185370
v	3.54672908 -0.78880924 0.77930831
v	3.54672908 -0.00950081 1.10210847
v	4.99807882 -0.08397348 0.07271306
v	4.99807882 -0.01126020 0.14542634
v	-3.10741066 1.27547681 1.27723634
v	-5 1.19997751 1.19997775
v	-3.10741043 -0.00175940 1.80628490
v	0.29319918 1.14826476 1.15389478
v	0.29319930 -0.00563010 1.63185370
v	3.54672908 0.76980763 0.77930831
v	3.54672908 -0.00950081 1.10210847
v	4.99807882 0.06145308 0.07271306
v	-5 -1.19997739 1.19997775
v	-5 0.00000000 1.69702470
v	-5 -1.69702446 0.00000021
v	-5 -1.19997739 -1.19997727
v	-5 0.00000000 -1.69702422
v	-5 1.19997751 -1.19997727
v	-5 1.69702458 0.00000021
v	-5 1.19997751 1.19997775
v	4.99807882 -0.01126020 0.14542634
v	4.99807882 -0.15668675 -0.00000021
v	4.99807882 -0.01126020 -0.14542678
v	4.99807882 -0.01126020 0.14542634
v	4.99807882 0.13416636 -0.00000021

# Number of normals: 60
vn	-0.36106729 0.93253976 0.00000001
vn	0.00783136 0.70708513 -0.70708513
vn	-0.36106711 0.65940511 -0.65940535
vn	-0.36106729 0.93253976 0.00000001
vn	0.00814874 0.99996674 0
vn	0.09480955 0.70392155 -0.70392155
vn	0.09514810 0.99546313 -0.00000000
vn	0.00706530 0 -0.99997496
vn	-0.36106732 0 -0.93253976
vn	0.09399176 0 -0.99557298
vn	0.26881238 0.68107986 -0.68107998
vn	0.26912775 0.96310448 -0.00000001
vn	0.26805082 0 -0.96340483
vn	0.99999922 -0.00085307 0.00085303
vn	0.99999928 -0.00120643 -0.00000004
vn	0.99999928 0 0.00120638
vn	0.00629895 -0.70709264 -0.70709288
vn	-0.36106714 -0.65940529 -0.65940523
vn	0.00706530 0 -0.99997496
vn	0.09317401 -0.70403075 -0.70403075
vn	0.09399176 0 -0.99557298
vn	0.00598159 -0.99998211 0
vn	-0.36106729 -0.93253976 0.00000001
vn	0.09283512 -0.99568152 -0.00000000
vn	0.26728868 -0.68137985 -0.68137967
vn	0.26805082 0 -0.96340483
vn	0.26697289 -0.96370410 -0.00000001
vn	0.99999922 0.00085307 0.00085303
vn	0.99999928 0.00120643 -0.00000004
vn	0.00629901 -0.70709276 0.70709276
vn	-0.36106705 -0.65940511 0.65940541
vn	0.09317407 -0.70403075 0.70403075
vn	0.00706538 0 0.99997496
vn	-0.36106729 0 0.93253988
vn	0.09399184 0 0.99557298
vn	0.26728877 -0.68137979 0.68137967
vn	0.26805090 0 0.96340483
vn	0.99999922 0.00085307 -0.00085312
vn	0.99999928 0 -0.00120647
vn	0.00783142 0.70708495 0.70708531
vn	-0.36106699 0.65940529 0.65940517
vn	0.00706538 0 0.99997496
vn	0.09480961 0.70392155 0.70392155
vn	0.09399184 0 0.99557298
vn	0.26881241 0.68107998 0.68107986
vn	0.26805090 0 0.96340483
vn	0.99999922 -0.00085307 -0.00085312
vn	-1 0 0.00000004
vn	-1 0 0.00000004
vn	-1 0 0.00000004
vn	-1 0 0.00000004
vn	-1 0 0.00000004
vn	-1 0 0.00000004
vn	-1 0 0.00000004
vn	-1 0 0.00000004
vn	1 0 -0.00000004
vn	1 0 -0.00000004
vn	1 0 -0.00000004
vn	1 0 -0.00000004
vn	1 0 -0.00000004

# Number of texture vertices: 60
vt	0 0
vt	0.17846773 0
vt	0 0
vt	0 0
vt	0.17846773 0
vt	0.49456739 0
vt	0.49456739 0
vt	0.17850330 0
vt	0 0
vt	0.49456739 0
vt	0.79172909 0
vt	0.79172909 0
vt	0.79172909 0
vt	1 0
vt	1 0
vt	1 0
vt	0.17870456 0
vt	0 0
vt	0.17870456 0
vt	0.49498560 0
vt	0.49498560 0
vt	0.17874012 0
vt	0 0
vt	0.49498560 0
vt	0.79202503 0
vt	0.79202503 0
vt	0.79202503 0
vt	1 0
vt	1 0
vt	0.17874012 0
vt	0 0
vt	0.49498560 0
vt	0.17870456 0
vt	0 0
vt	0.49498560 0
vt	0.79202503 0
vt	0.79202503 0
vt	1 0
vt	1 0
vt	0.17850330 0
vt	0 0
vt	0.17850330 0
vt	0.49456739 0
vt	0.49456739 0
vt	0.79172909 0
vt	0.79172909 0
vt	1 0
vt	0.14644663 0.14644663
vt	0 0.5
vt	0.5 0
vt	0.85355341 0.14644663
vt	1 0.5
vt	0.85355341 0.85355341
vt	0.5 1
vt	0.14644663 0.85355341
vt	0 0.5
vt	0.08094581 0
vt	0.16189162 0.5
vt	0 0.5
vt	0.08094581 1

g Spline Object
# Number of facets: 72
usemtl Climbing_Fern
f	1/1/1 2/2/2 3/3/3
f	4/4/4 5/5/5 2/2/2
f	5/5/5 6/6/6 2/2/2
f	5/5/5 7/7/7 6/6/6
f	3/3/3 8/8/8 9/9/9
f	3/3/3 2/2/2 8/8/8
f	2/2/2 10/10/10 8/8/8
f	2/2/2 6/6/6 10/10/10
f	7/7/7 11/11/11 6/6/6
f	7/7/7 12/12/12 11/11/11
f	6/6/6 13/13/13 10/10/10
f	6/6/6 11/11/11 13/13/13
f	12/12/12 14/14/14 11/11/11
f	12/12/12 15/15/15 14/14/14
f	11/11/11 16/16/16 13/13/13
f	11/11/11 14/14/14 16/16/16
f	9/9/9 17/17/17 18/18/18
f	9/9/9 19/19/19 17/17/17
f	19/19/19 20/20/20 17/17/17
f	19/19/19 21/21/21 20/20/20
f	18/18/18 22/22/22 23/23/23
f	18/18/18 17/17/17 22/22/22
f	17/17/17 24/24/24 22/22/22
f	17/17/17 20/20/20 24/24/24
f	21/21/21 25/25/25 20/20/20
f	21/21/21 26/26/26 25/25/25
f	20/20/20 27/27/27 24/24/24
f	20/20/20 25/25/25 27/27/27
f	26/26/26 28/28/28 25/25/25
f	26/26/26 16/16/16 28/28/28
f	25/25/25 29/29/29 27/27/27
f	25/25/25 28/28/28 29/29/29
f	23/23/23 30/30/30 31/31/31
f	23/23/23 22/22/22 30/30/30
f	22/22/22 32/32/32 30/30/30
f	22/22/22 24/24/24 32/32/32
f	31/31/31 33/33/33 34/34/34
f	31/31/31 30/30/30 33/33/33
f	30/30/30 35/35/35 33/33/33
f	30/30/30 32/32/32 35/35/35
f	24/24/24 36/36/36 32/32/32
f	24/24/24 27/27/27 36/36/36
f	32/32/32 37/37/37 35/35/35
f	32/32/32 36/36/36 37/37/37
f	27/27/27 38/38/38 36/36/36
f	27/27/27 29/29/29 38/38/38
f	36/36/36 39/39/39 37/37/37
f	36/36/36 38/38/38 39/39/39
f	34/34/34 40/40/40 41/41/41
f	34/34/34 42/42/42 40/40/40
f	42/42/42 43/43/43 40/40/40
f	42/42/42 44/44/44 43/43/43
f	41/41/41 5/5/5 4/4/4
f	41/41/41 40/40/40 5/5/5
f	40/40/40 7/7/7 5/5/5
f	40/40/40 43/43/43 7/7/7
f	44/44/44 45/45/45 43/43/43
f	44/44/44 46/46/46 45/45/45
f	43/43/43 12/12/12 7/7/7
f	43/43/43 45/45/45 12/12/12
f	46/46/46 47/47/47 45/45/45
f	46/46/46 39/39/39 47/47/47
f	45/45/45 15/15/15 12/12/12
f	45/45/45 47/47/47 15/15/15
usemtl Climbing_Fern
f	48/48/48 49/49/49 50/50/50
f	50/50/50 49/49/49 51/51/51
f	51/51/51 49/49/49 52/52/52
f	52/52/52 49/49/49 53/53/53
f	53/53/53 49/49/49 54/54/54
f	54/54/54 49/49/49 55/55/55
usemtl Climbing_Fern
f	56/56/56 57/57/57 58/58/58
f	59/59/59 58/58/58 60/60/60


