# Created By Carrara 1.0

mtllib switch.Mtl

# Number of vertices: 162
v	0.26221948 0.02094984 0.00000005
v	0.66486918 0.12062120 0.66486942
v	0.13110971 0.02094984 0.13110983
v	0.26221948 0.02094984 0.00000005
v	0.94026708 0.12062120 0.00000007
v	-0.00000020 0.12062120 0.94026720
v	-0.00000008 0.02094984 0.26221963
v	-0.66486972 0.12062120 0.66486942
v	-0.13110986 0.02094984 0.13110983
v	-0.94026750 0.12062120 -0.00000000
v	-0.26221966 0.02094984 0.00000003
v	-0.66486966 0.12062120 -0.66486930
v	-0.13110986 0.02094984 -0.13110975
v	-0.00000013 0.12062120 -0.94026726
v	-0.00000006 0.02094984 -0.26221951
v	0.66486924 0.12062120 -0.66486930
v	0.13110971 0.02094984 -0.13110974
v	0.94026708 0.12062120 0.00000007
v	0.26221948 0.02094984 0.00000005
v	0.94026708 0.12062120 0.00000007
v	0.68287307 0.79354047 0.68287324
v	0.66486918 0.12062120 0.66486942
v	0.94026708 0.12062120 0.00000007
v	0.96572846 0.79354047 0.00000008
v	-0.00000018 0.79354047 0.96572852
v	-0.00000020 0.12062120 0.94026720
v	0.68130582 2.18038559 0.68130600
v	0.96351194 2.18038559 0.00000009
v	-0.00000013 2.18038559 0.96351212
v	0.67022335 3.60126209 0.67022347
v	0.94783896 3.60126209 0.00000009
v	-0.00000008 3.60126209 0.94783908
v	0.46646529 4.37627458 0.46646535
v	0.93293058 4.37627410 0.00000007
v	-0.00000003 4.37627458 0.93293058
v	-0.68287348 0.79354047 0.68287324
v	-0.66486972 0.12062120 0.66486942
v	-0.96572876 0.79354047 0.00000000
v	-0.94026750 0.12062120 -0.00000000
v	-0.68130618 2.18038559 0.68130600
v	-0.96351218 2.18038559 0.00000001
v	-0.67022365 3.60126209 0.67022347
v	-0.94783920 3.60126209 0.00000002
v	-0.46646535 4.37627458 0.46646529
v	-0.93293070 4.37627458 0
v	-0.68287342 0.79354047 -0.68287318
v	-0.66486966 0.12062120 -0.66486930
v	-0.00000010 0.79354047 -0.96572858
v	-0.00000013 0.12062120 -0.94026726
v	-0.68130612 2.18038559 -0.68130594
v	-0.00000006 2.18038559 -0.96351206
v	-0.67022359 3.60126209 -0.67022341
v	-0.00000000 3.60126209 -0.94783896
v	-0.46646529 4.37627458 -0.46646523
v	0.00000003 4.37627458 -0.93293052
v	0.68287313 0.79354047 -0.68287318
v	0.66486924 0.12062120 -0.66486930
v	0.96572846 0.79354047 0.00000008
v	0.94026708 0.12062120 0.00000007
v	0.68130588 2.18038559 -0.68130594
v	0.96351194 2.18038559 0.00000009
v	0.67022341 3.60126209 -0.67022341
v	0.94783896 3.60126209 0.00000009
v	0.46646532 4.37627458 -0.46646517
v	0.93293058 4.37627410 0.00000007
v	0.93293058 4.37627410 0.00000007
v	0.00000000 5.14474010 0.47399303
v	-0.00000003 4.37627458 0.93293058
v	0.93293058 4.37627410 0.00000007
v	0.47399297 5.14474010 0.00000006
v	-0.47399294 5.14474010 0.00000002
v	-0.93293070 4.37627458 0
v	0.00000004 5.14474010 -0.47399294
v	0.00000003 4.37627458 -0.93293052
v	0.47399297 5.14474010 0.00000006
v	0.93293058 4.37627410 0.00000007
v	0.47399297 5.14474010 0.00000006
v	0.00000006 6.46265029 0.44758072
v	0.00000000 5.14474010 0.47399303
v	0.47399297 5.14474010 0.00000006
v	0.44758075 6.46265029 0.00000006
v	-0.44758060 6.46265029 0.00000002
v	-0.47399294 5.14474010 0.00000002
v	0.00000009 6.46265029 -0.44758060
v	0.00000004 5.14474010 -0.47399294
v	0.44758075 6.46265029 0.00000006
v	0.47399297 5.14474010 0.00000006
v	0.44758075 6.46265029 0.00000006
v	0.00000008 7.04721450 0.33265087
v	0.00000006 6.46265029 0.44758072
v	0.44758075 6.46265029 0.00000006
v	0.33265090 7.04721450 0.00000005
v	-0.33265072 7.04721450 0.00000003
v	-0.44758060 6.46265029 0.00000002
v	0.00000011 7.04721450 -0.33265078
v	0.00000009 6.46265029 -0.44758060
v	0.33265090 7.04721450 0.00000005
v	0.44758075 6.46265029 0.00000006
v	0.33265090 7.04721450 0.00000005
v	0.00000008 7.07370376 0.41224661
v	0.00000008 7.04721450 0.33265087
v	0.33265090 7.04721450 0.00000005
v	0.41224664 7.07370376 0.00000006
v	-0.41224643 7.07370376 0.00000002
v	-0.33265072 7.04721450 0.00000003
v	0.00000011 7.07370376 -0.41224649
v	0.00000011 7.04721450 -0.33265078
v	0.41224664 7.07370376 0.00000006
v	0.33265090 7.04721450 0.00000005
v	0.41224664 7.07370376 0.00000006
v	0.00000011 7.74726390 0.39458185
v	0.00000008 7.07370376 0.41224661
v	0.41224664 7.07370376 0.00000006
v	0.39458191 7.74726390 0.00000006
v	-0.39458170 7.74726390 0.00000002
v	-0.41224643 7.07370376 0.00000002
v	0.00000014 7.74726390 -0.39458173
v	0.00000011 7.07370376 -0.41224649
v	0.39458191 7.74726390 0.00000006
v	0.41224664 7.07370376 0.00000006
v	0.39458191 7.74726390 0.00000006
v	0.00000010 7.73821258 0.52728396
v	0.00000011 7.74726390 0.39458185
v	0.39458191 7.74726390 0.00000006
v	0.52728408 7.73821258 0.00000006
v	-0.52728378 7.73821258 0.00000002
v	-0.39458170 7.74726390 0.00000002
v	0.00000014 7.73821258 -0.52728390
v	0.00000014 7.74726390 -0.39458173
v	0.52728408 7.73821258 0.00000006
v	0.39458191 7.74726390 0.00000006
v	0.52728408 7.73821258 0.00000006
v	0.00000011 7.96000766 0.43883076
v	0.00000010 7.73821258 0.52728396
v	0.52728408 7.73821258 0.00000006
v	0.43883085 7.96000766 0.00000006
v	-0.43883058 7.96000766 0.00000002
v	-0.52728378 7.73821258 0.00000002
v	0.00000015 7.96000766 -0.43883067
v	0.00000014 7.73821258 -0.52728390
v	0.43883085 7.96000766 0.00000006
v	0.52728408 7.73821258 0.00000006
v	0.43883085 7.96000766 0.00000006
v	0.00000012 8 0.17752908
v	0.00000011 7.96000766 0.43883076
v	0.43883085 7.96000766 0.00000006
v	0.17752915 8 0.00000005
v	-0.17752891 8 0.00000003
v	-0.43883058 7.96000766 0.00000002
v	0.00000013 8 -0.17752897
v	0.00000015 7.96000766 -0.43883067
v	0.17752915 8 0.00000005
v	0.43883085 7.96000766 0.00000006
v	-0.26221966 0.02094984 0.00000003
v	-0.00000006 0.02094984 -0.26221951
v	-0.00000008 0.02094984 0.26221963
v	0.26221948 0.02094984 0.00000005
v	0.00000013 8 -0.17752897
v	-0.17752891 8 0.00000003
v	0.00000012 8 0.17752908
v	0.00000013 8 -0.17752897
v	0.17752915 8 0.00000005

# Number of normals: 162
vn	-0.03135349 -0.99950838 -0.00000000
vn	0.63421058 -0.44221469 0.63421064
vn	-0.02217028 -0.99950838 -0.02217024
vn	-0.03135349 -0.99950838 -0.00000000
vn	0.89690941 -0.44221454 0.00000003
vn	-0.00000005 -0.44221419 0.89690947
vn	-0.00000003 -0.99950838 -0.03135345
vn	-0.63421064 -0.44221442 0.63421082
vn	0.02217019 -0.99950838 -0.02217023
vn	-0.89690941 -0.44221448 -0.00000003
vn	0.03135341 -0.99950838 0.00000000
vn	-0.63421076 -0.44221440 -0.63421076
vn	0.02217019 -0.99950838 0.02217023
vn	0.00000001 -0.44221451 -0.89690941
vn	-0.00000004 -0.99950838 0.03135345
vn	0.63421070 -0.44221469 -0.63421052
vn	-0.02217028 -0.99950838 0.02217023
vn	0.89690941 -0.44221454 0.00000003
vn	-0.03135349 -0.99950838 -0.00000000
vn	0.89690881 -0.44221550 0.00000003
vn	0.70708352 -0.00809312 0.70708364
vn	0.63421040 -0.44221532 0.63421040
vn	0.89690881 -0.44221550 0.00000003
vn	0.99996727 -0.00809325 0.00000004
vn	-0.00000004 -0.00809321 0.99996727
vn	-0.00000005 -0.44221416 0.89690947
vn	0.70708710 0.00745762 0.70708721
vn	0.99997222 0.00745782 0.00000004
vn	-0.00000004 0.00745765 0.99997222
vn	0.70703160 0.01457914 0.70703172
vn	0.99989378 0.01457911 0.00000004
vn	-0.00000003 0.01457915 0.99989378
vn	0.70644164 0.04336436 0.70644170
vn	0.99905926 0.04336495 0.00000004
vn	-0.00000003 0.04336426 0.99905937
vn	-0.70708364 -0.00809296 0.70708364
vn	-0.63421064 -0.44221431 0.63421082
vn	-0.99996727 -0.00809288 -0.00000004
vn	-0.89690822 -0.44221681 -0.00000003
vn	-0.70708715 0.00745760 0.70708710
vn	-0.99997222 0.00745769 -0.00000004
vn	-0.70703154 0.01457910 0.70703178
vn	-0.99989378 0.01457892 -0.00000004
vn	-0.70644164 0.04336493 0.70644152
vn	-0.99905926 0.04336577 -0.00000004
vn	-0.70708352 -0.00809296 -0.70708364
vn	-0.63421040 -0.44221526 -0.63421040
vn	0.00000004 -0.00809321 -0.99996727
vn	0.00000001 -0.44221416 -0.89690947
vn	-0.70708710 0.00745776 -0.70708721
vn	0.00000004 0.00745786 -0.99997222
vn	-0.70703160 0.01457900 -0.70703172
vn	0.00000004 0.01457888 -0.99989378
vn	-0.70644146 0.04336441 -0.70644176
vn	0.00000004 0.04336426 -0.99905937
vn	0.70708364 -0.00809312 -0.70708364
vn	0.63421011 -0.44221624 -0.63421005
vn	0.99996727 -0.00809325 0.00000004
vn	0.89690881 -0.44221550 0.00000003
vn	0.70708715 0.00745778 -0.70708710
vn	0.99997222 0.00745782 0.00000004
vn	0.70703160 0.01457904 -0.70703166
vn	0.99989378 0.01457911 0.00000004
vn	0.70644164 0.04336384 -0.70644164
vn	0.99905926 0.04336495 0.00000004
vn	0.99905937 0.04336367 0.00000004
vn	-0.00000003 0.04334910 0.99906003
vn	-0.00000003 0.04336354 0.99905937
vn	0.99905937 0.04336367 0.00000004
vn	0.99906003 0.04334887 0.00000004
vn	-0.99906003 0.04334877 -0.00000004
vn	-0.99905937 0.04336357 -0.00000004
vn	0.00000004 0.04334873 -0.99906003
vn	0.00000004 0.04336390 -0.99905937
vn	0.99906003 0.04334887 0.00000004
vn	0.99905937 0.04336367 0.00000004
vn	0.99906003 0.04334776 0.00000004
vn	-0.00000003 0.11878976 0.99291944
vn	-0.00000003 0.04334799 0.99906003
vn	0.99906003 0.04334776 0.00000004
vn	0.99291944 0.11878980 0.00000004
vn	-0.99291944 0.11878972 -0.00000004
vn	-0.99906003 0.04334803 -0.00000004
vn	0.00000004 0.11878984 -0.99291944
vn	0.00000004 0.04334799 -0.99906003
vn	0.99291944 0.11878980 0.00000004
vn	0.99906003 0.04334776 0.00000004
vn	0.99291944 0.11879013 0.00000004
vn	-0.00000002 0.28229036 0.95932894
vn	-0.00000003 0.11879017 0.99291944
vn	0.99291944 0.11879013 0.00000004
vn	0.95932894 0.28229045 0.00000003
vn	-0.95932894 0.28229042 -0.00000003
vn	-0.99291944 0.11879021 -0.00000004
vn	0.00000005 0.28229027 -0.95932894
vn	0.00000004 0.11879017 -0.99291944
vn	0.95932894 0.28229045 0.00000003
vn	0.99291944 0.11879013 0.00000004
vn	-0.28345859 -0.95898443 -0.00000001
vn	-0.00000005 -0.40431994 0.91461759
vn	-0.00000002 -0.95898455 -0.28345847
vn	-0.28345859 -0.95898443 -0.00000001
vn	0.91461759 -0.40431997 0.00000003
vn	-0.91461759 -0.40431991 -0.00000003
vn	0.28345868 -0.95898449 0.00000001
vn	0.00000002 -0.40431994 -0.91461759
vn	-0.00000005 -0.95898449 0.28345871
vn	0.91461759 -0.40431997 0.00000003
vn	-0.28345859 -0.95898443 -0.00000001
vn	0.91461950 -0.40431568 0.00000003
vn	-0.00000003 0.05903963 0.99825561
vn	-0.00000005 -0.40431615 0.91461932
vn	0.91461950 -0.40431568 0.00000003
vn	0.99825561 0.05903950 0.00000004
vn	-0.99825561 0.05903954 -0.00000004
vn	-0.91461956 -0.40431562 -0.00000003
vn	0.00000004 0.05903959 -0.99825561
vn	0.00000002 -0.40431615 -0.91461932
vn	0.99825561 0.05903950 0.00000004
vn	0.91461950 -0.40431568 0.00000003
vn	-0.06804918 -0.99768203 -0.00000000
vn	-0.00000003 -0.99768203 -0.06804916
vn	-0.00000003 -0.99768203 -0.06804917
vn	-0.06804918 -0.99768203 -0.00000000
vn	-0.06804918 -0.99768203 -0.00000000
vn	0.06804914 -0.99768203 0.00000000
vn	0.06804913 -0.99768203 0.00000000
vn	-0.00000004 -0.99768167 0.06805414
vn	-0.00000004 -0.99768203 0.06804910
vn	-0.06805414 -0.99768167 -0.00000000
vn	-0.06804918 -0.99768203 -0.00000000
vn	0.98159450 0.19097711 0.00000003
vn	0.00000001 0.82904499 0.55918198
vn	-0.00000003 0.19097715 0.98159450
vn	0.98159450 0.19097711 0.00000003
vn	0.55918180 0.82904511 0.00000002
vn	-0.55918192 0.82904499 -0.00000002
vn	-0.98159450 0.19097720 -0.00000003
vn	0.00000005 0.82904523 -0.55918157
vn	0.00000004 0.19097685 -0.98159450
vn	0.55918180 0.82904511 0.00000002
vn	0.98159450 0.19097711 0.00000003
vn	0.55918324 0.82904416 0.00000002
vn	0.00000003 0.99973440 0.02304840
vn	0.00000001 0.82904416 0.55918324
vn	0.55918324 0.82904416 0.00000002
vn	0.02304844 0.99973440 0.00000000
vn	-0.02304836 0.99973440 -0.00000000
vn	-0.55918317 0.82904416 -0.00000002
vn	0.00000004 0.99973440 -0.02304839
vn	0.00000005 0.82904410 -0.55918312
vn	0.02304844 0.99973440 0.00000000
vn	0.55918324 0.82904416 0.00000002
vn	-0.00000004 -1 0
vn	-0.00000004 -1 0
vn	-0.00000004 -1 0
vn	-0.00000004 -1 0
vn	0.00000004 1 0
vn	0.00000004 1 0
vn	0.00000004 1 0
vn	0.00000004 1 0
vn	0.00000004 1 0

# Number of texture vertices: 162
vt	0 0
vt	0.01716240 0.13025133
vt	0 0.13025133
vt	0 0
vt	0.01716240 0
vt	0.01716240 0.25
vt	0 0.25
vt	0.01716240 0.38025134
vt	0 0.38025134
vt	0.01716240 0.5
vt	0 0.5
vt	0.01716240 0.63025140
vt	0 0.63025140
vt	0.01716240 0.75000006
vt	0 0.75000006
vt	0.01716240 0.88025134
vt	0 0.88025134
vt	0.01716240 1
vt	0 1
vt	0.01716240 0
vt	0.10059170 0.13529902
vt	0.01716240 0.13529902
vt	0.01716240 0
vt	0.10059170 0
vt	0.10059170 0.25
vt	0.01716240 0.25
vt	0.27236801 0.13529902
vt	0.27236801 0
vt	0.27236801 0.25
vt	0.44838762 0.13529904
vt	0.44838762 0
vt	0.44838762 0.25
vt	0.54440671 0.13025133
vt	0.54440671 0
vt	0.54440671 0.25
vt	0.10059170 0.38529902
vt	0.01716240 0.38529902
vt	0.10059170 0.5
vt	0.01716240 0.5
vt	0.27236801 0.38529902
vt	0.27236801 0.5
vt	0.44838762 0.38529902
vt	0.44838762 0.5
vt	0.54440671 0.38025134
vt	0.54440671 0.5
vt	0.10059170 0.63529908
vt	0.01716240 0.63529908
vt	0.10059170 0.75000006
vt	0.01716240 0.75000006
vt	0.27236801 0.63529908
vt	0.27236801 0.75000006
vt	0.44838762 0.63529908
vt	0.44838762 0.75000006
vt	0.54440671 0.63025140
vt	0.54440671 0.75000006
vt	0.10059170 0.88529902
vt	0.01716240 0.88529902
vt	0.10059170 1
vt	0.01716240 1
vt	0.27236801 0.88529908
vt	0.27236801 1
vt	0.44838762 0.88529908
vt	0.44838762 1
vt	0.54440671 0.88025134
vt	0.54440671 1
vt	0.54440671 0
vt	0.63961398 0.25
vt	0.54440671 0.25
vt	0.54440671 0
vt	0.63961398 0
vt	0.63961398 0.5
vt	0.54440671 0.5
vt	0.63961398 0.75000006
vt	0.54440671 0.75000006
vt	0.63961398 1
vt	0.54440671 1
vt	0.63961398 0
vt	0.80289346 0.25
vt	0.63961398 0.25
vt	0.63961398 0
vt	0.80289346 0
vt	0.80289346 0.5
vt	0.63961398 0.5
vt	0.80289346 0.75000006
vt	0.63961398 0.75000006
vt	0.80289346 1
vt	0.63961398 1
vt	0.80289346 0
vt	0.87531667 0.25
vt	0.80289346 0.25
vt	0.80289346 0
vt	0.87531667 0
vt	0.87531667 0.5
vt	0.80289346 0.5
vt	0.87531667 0.75000006
vt	0.80289346 0.75000006
vt	0.87531667 1
vt	0.80289346 1
vt	0.87531667 0
vt	0.88299590 0.25
vt	0.87531667 0.25
vt	0.87531667 0
vt	0.88299590 0
vt	0.88299590 0.5
vt	0.87531667 0.5
vt	0.88299590 0.75000006
vt	0.87531667 0.75000006
vt	0.88299590 1
vt	0.87531667 1
vt	0.88299590 0
vt	0.96644502 0.25
vt	0.88299590 0.25
vt	0.88299590 0
vt	0.96644502 0
vt	0.96644502 0.5
vt	0.88299590 0.5
vt	0.96644502 0.75000006
vt	0.88299590 0.75000006
vt	0.96644502 1
vt	0.88299590 1
vt	0.96644502 0
vt	0.96756637 0.25
vt	0.96644502 0.25
vt	0.96644502 0
vt	0.96756637 0
vt	0.96756637 0.5
vt	0.96644502 0.5
vt	0.96756637 0.75000006
vt	0.96644502 0.75000006
vt	0.96756637 1
vt	0.96644502 1
vt	0.96756637 0
vt	0.99504518 0.25
vt	0.96756637 0.25
vt	0.96756637 0
vt	0.99504518 0
vt	0.99504518 0.5
vt	0.96756637 0.5
vt	0.99504518 0.75000006
vt	0.96756637 0.75000006
vt	0.99504518 1
vt	0.96756637 1
vt	0.99504518 0
vt	1 0.25
vt	0.99504518 0.25
vt	0.99504518 0
vt	1 0
vt	1 0.5
vt	0.99504518 0.5
vt	1 0.75000006
vt	0.99504518 0.75000006
vt	1 1
vt	0.99504518 1
vt	0.5 0
vt	0 0.50000006
vt	1 0.50000006
vt	0.5 1
vt	0 0.50000006
vt	0.5 0
vt	1 0.50000006
vt	0 0.50000006
vt	0.5 1.00000011

g Spline Object
# Number of facets: 148
usemtl Shader
f	1/1/1 2/2/2 3/3/3
f	4/4/4 5/5/5 2/2/2
f	3/3/3 6/6/6 7/7/7
f	3/3/3 2/2/2 6/6/6
f	7/7/7 8/8/8 9/9/9
f	7/7/7 6/6/6 8/8/8
f	9/9/9 10/10/10 11/11/11
f	9/9/9 8/8/8 10/10/10
f	11/11/11 12/12/12 13/13/13
f	11/11/11 10/10/10 12/12/12
f	13/13/13 14/14/14 15/15/15
f	13/13/13 12/12/12 14/14/14
f	15/15/15 16/16/16 17/17/17
f	15/15/15 14/14/14 16/16/16
f	17/17/17 18/18/18 19/19/19
f	17/17/17 16/16/16 18/18/18
f	20/20/20 21/21/21 22/22/22
f	23/23/23 24/24/24 21/21/21
f	22/22/22 25/25/25 26/26/26
f	22/22/22 21/21/21 25/25/25
f	24/24/24 27/27/27 21/21/21
f	24/24/24 28/28/28 27/27/27
f	21/21/21 29/29/29 25/25/25
f	21/21/21 27/27/27 29/29/29
f	28/28/28 30/30/30 27/27/27
f	28/28/28 31/31/31 30/30/30
f	27/27/27 32/32/32 29/29/29
f	27/27/27 30/30/30 32/32/32
f	31/31/31 33/33/33 30/30/30
f	31/31/31 34/34/34 33/33/33
f	30/30/30 35/35/35 32/32/32
f	30/30/30 33/33/33 35/35/35
f	26/26/26 36/36/36 37/37/37
f	26/26/26 25/25/25 36/36/36
f	37/37/37 38/38/38 39/39/39
f	37/37/37 36/36/36 38/38/38
f	25/25/25 40/40/40 36/36/36
f	25/25/25 29/29/29 40/40/40
f	36/36/36 41/41/41 38/38/38
f	36/36/36 40/40/40 41/41/41
f	29/29/29 42/42/42 40/40/40
f	29/29/29 32/32/32 42/42/42
f	40/40/40 43/43/43 41/41/41
f	40/40/40 42/42/42 43/43/43
f	32/32/32 44/44/44 42/42/42
f	32/32/32 35/35/35 44/44/44
f	42/42/42 45/45/45 43/43/43
f	42/42/42 44/44/44 45/45/45
f	39/39/39 46/46/46 47/47/47
f	39/39/39 38/38/38 46/46/46
f	47/47/47 48/48/48 49/49/49
f	47/47/47 46/46/46 48/48/48
f	38/38/38 50/50/50 46/46/46
f	38/38/38 41/41/41 50/50/50
f	46/46/46 51/51/51 48/48/48
f	46/46/46 50/50/50 51/51/51
f	41/41/41 52/52/52 50/50/50
f	41/41/41 43/43/43 52/52/52
f	50/50/50 53/53/53 51/51/51
f	50/50/50 52/52/52 53/53/53
f	43/43/43 54/54/54 52/52/52
f	43/43/43 45/45/45 54/54/54
f	52/52/52 55/55/55 53/53/53
f	52/52/52 54/54/54 55/55/55
f	49/49/49 56/56/56 57/57/57
f	49/49/49 48/48/48 56/56/56
f	57/57/57 58/58/58 59/59/59
f	57/57/57 56/56/56 58/58/58
f	48/48/48 60/60/60 56/56/56
f	48/48/48 51/51/51 60/60/60
f	56/56/56 61/61/61 58/58/58
f	56/56/56 60/60/60 61/61/61
f	51/51/51 62/62/62 60/60/60
f	51/51/51 53/53/53 62/62/62
f	60/60/60 63/63/63 61/61/61
f	60/60/60 62/62/62 63/63/63
f	53/53/53 64/64/64 62/62/62
f	53/53/53 55/55/55 64/64/64
f	62/62/62 65/65/65 63/63/63
f	62/62/62 64/64/64 65/65/65
f	66/66/66 67/67/67 68/68/68
f	69/69/69 70/70/70 67/67/67
f	68/68/68 71/71/71 72/72/72
f	68/68/68 67/67/67 71/71/71
f	72/72/72 73/73/73 74/74/74
f	72/72/72 71/71/71 73/73/73
f	74/74/74 75/75/75 76/76/76
f	74/74/74 73/73/73 75/75/75
f	77/77/77 78/78/78 79/79/79
f	80/80/80 81/81/81 78/78/78
f	79/79/79 82/82/82 83/83/83
f	79/79/79 78/78/78 82/82/82
f	83/83/83 84/84/84 85/85/85
f	83/83/83 82/82/82 84/84/84
f	85/85/85 86/86/86 87/87/87
f	85/85/85 84/84/84 86/86/86
f	88/88/88 89/89/89 90/90/90
f	91/91/91 92/92/92 89/89/89
f	90/90/90 93/93/93 94/94/94
f	90/90/90 89/89/89 93/93/93
f	94/94/94 95/95/95 96/96/96
f	94/94/94 93/93/93 95/95/95
f	96/96/96 97/97/97 98/98/98
f	96/96/96 95/95/95 97/97/97
f	99/99/99 100/100/100 101/101/101
f	102/102/102 103/103/103 100/100/100
f	101/101/101 104/104/104 105/105/105
f	101/101/101 100/100/100 104/104/104
f	105/105/105 106/106/106 107/107/107
f	105/105/105 104/104/104 106/106/106
f	107/107/107 108/108/108 109/109/109
f	107/107/107 106/106/106 108/108/108
f	110/110/110 111/111/111 112/112/112
f	113/113/113 114/114/114 111/111/111
f	112/112/112 115/115/115 116/116/116
f	112/112/112 111/111/111 115/115/115
f	116/116/116 117/117/117 118/118/118
f	116/116/116 115/115/115 117/117/117
f	118/118/118 119/119/119 120/120/120
f	118/118/118 117/117/117 119/119/119
f	121/121/121 122/122/122 123/123/123
f	124/124/124 125/125/125 122/122/122
f	123/123/123 126/126/126 127/127/127
f	123/123/123 122/122/122 126/126/126
f	127/127/127 128/128/128 129/129/129
f	127/127/127 126/126/126 128/128/128
f	129/129/129 130/130/130 131/131/131
f	129/129/129 128/128/128 130/130/130
f	132/132/132 133/133/133 134/134/134
f	135/135/135 136/136/136 133/133/133
f	134/134/134 137/137/137 138/138/138
f	134/134/134 133/133/133 137/137/137
f	138/138/138 139/139/139 140/140/140
f	138/138/138 137/137/137 139/139/139
f	140/140/140 141/141/141 142/142/142
f	140/140/140 139/139/139 141/141/141
f	143/143/143 144/144/144 145/145/145
f	146/146/146 147/147/147 144/144/144
f	145/145/145 148/148/148 149/149/149
f	145/145/145 144/144/144 148/148/148
f	149/149/149 150/150/150 151/151/151
f	149/149/149 148/148/148 150/150/150
f	151/151/151 152/152/152 153/153/153
f	151/151/151 150/150/150 152/152/152
usemtl Shader
f	154/154/154 155/155/155 156/156/156
f	156/156/156 155/155/155 157/157/157
usemtl Shader
f	158/158/158 159/159/159 160/160/160
f	161/161/161 160/160/160 162/162/162


